<svg xmlns="http://www.w3.org/2000/svg" viewBox="0 0 1600 900" role="img" aria-label="Medical laboratory hero illustration">
  <defs>
    <linearGradient id="bg" x1="0" y1="0" x2="1" y2="1">
      <stop offset="0%" stop-color="#1f5ec0"/>
      <stop offset="100%" stop-color="#123a7b"/>
    </linearGradient>
    <linearGradient id="glass" x1="0" y1="0" x2="0" y2="1">
      <stop offset="0%" stop-color="#d8ebff" stop-opacity="0.95"/>
      <stop offset="100%" stop-color="#8fc0ff" stop-opacity="0.65"/>
    </linearGradient>
    <radialGradient id="glow" cx="50%" cy="40%" r="55%">
      <stop offset="0%" stop-color="#7dd3ff" stop-opacity="0.4"/>
      <stop offset="100%" stop-color="#7dd3ff" stop-opacity="0"/>
    </radialGradient>
  </defs>
  <rect width="1600" height="900" fill="url(#bg)"/>
  <rect width="1600" height="900" fill="url(#glow)"/>

  <g opacity="0.18" stroke="#d5e9ff" stroke-width="2">
    <path d="M0 740 C250 660 450 790 700 730 C920 675 1180 790 1600 710"/>
    <path d="M0 790 C240 710 520 850 740 780 C990 700 1240 860 1600 780"/>
  </g>

  <g transform="translate(1030 220)">
    <rect x="0" y="260" width="420" height="24" rx="8" fill="#0b2f63"/>
    <rect x="170" y="70" width="74" height="260" rx="18" fill="#cfe4ff"/>
    <rect x="80" y="250" width="260" height="36" rx="10" fill="#a3ccff"/>
    <circle cx="200" cy="170" r="92" fill="url(#glass)" stroke="#e7f3ff" stroke-width="8"/>
    <circle cx="200" cy="170" r="38" fill="#6daeff" opacity="0.8"/>
    <rect x="260" y="20" width="34" height="160" rx="10" transform="rotate(28 260 20)" fill="#b9d8ff"/>
  </g>

  <g transform="translate(160 420)">
    <circle cx="68" cy="36" r="30" fill="#dceeff"/>
    <rect x="30" y="70" width="78" height="145" rx="20" fill="#e6f3ff"/>
    <rect x="0" y="120" width="138" height="24" rx="12" fill="#c2dcff"/>
  </g>

  <g transform="translate(360 390)">
    <circle cx="70" cy="34" r="31" fill="#dceeff"/>
    <rect x="28" y="68" width="84" height="155" rx="20" fill="#e6f3ff"/>
    <rect x="-4" y="124" width="148" height="24" rx="12" fill="#c2dcff"/>
  </g>

  <g transform="translate(88 130)" opacity="0.9">
    <rect x="0" y="0" width="630" height="240" rx="20" fill="#eff7ff"/>
    <rect x="0" y="0" width="630" height="44" rx="20" fill="#d5e9ff"/>
    <circle cx="28" cy="22" r="7" fill="#3f79cb"/>
    <circle cx="50" cy="22" r="7" fill="#6196e2"/>
    <rect x="88" y="14" width="180" height="16" rx="8" fill="#bdd8ff"/>
    <rect x="36" y="76" width="240" height="132" rx="12" fill="#cbe2ff"/>
    <rect x="298" y="76" width="296" height="22" rx="10" fill="#cbe2ff"/>
    <rect x="298" y="112" width="250" height="18" rx="9" fill="#d7e9ff"/>
    <rect x="298" y="142" width="276" height="18" rx="9" fill="#d7e9ff"/>
    <rect x="298" y="172" width="200" height="18" rx="9" fill="#d7e9ff"/>
  </g>
</svg>
