<svg xmlns="http://www.w3.org/2000/svg" viewBox="0 0 1000 700" role="img" aria-label="Multi-omics network illustration">
  <defs>
    <linearGradient id="bg" x1="0" y1="0" x2="1" y2="1">
      <stop offset="0%" stop-color="#1f58b2"/>
      <stop offset="100%" stop-color="#183a7b"/>
    </linearGradient>
    <linearGradient id="dna" x1="0" y1="0" x2="1" y2="0">
      <stop offset="0%" stop-color="#d9edff"/>
      <stop offset="100%" stop-color="#91c4ff"/>
    </linearGradient>
  </defs>
  <rect width="1000" height="700" fill="url(#bg)"/>

  <g opacity="0.7" stroke="#cfe7ff" stroke-width="2">
    <path d="M80 350 C220 180 360 520 500 350 C640 180 780 520 920 350"/>
    <path d="M80 390 C220 220 360 560 500 390 C640 220 780 560 920 390"/>
  </g>
  <g stroke="url(#dna)" stroke-width="4" opacity="0.85">
    <line x1="140" y1="286" x2="140" y2="454"/>
    <line x1="220" y1="234" x2="220" y2="506"/>
    <line x1="300" y1="256" x2="300" y2="484"/>
    <line x1="380" y1="306" x2="380" y2="434"/>
    <line x1="460" y1="264" x2="460" y2="476"/>
    <line x1="540" y1="264" x2="540" y2="476"/>
    <line x1="620" y1="306" x2="620" y2="434"/>
    <line x1="700" y1="256" x2="700" y2="484"/>
    <line x1="780" y1="234" x2="780" y2="506"/>
    <line x1="860" y1="286" x2="860" y2="454"/>
  </g>

  <g fill="#eaf5ff" opacity="0.96">
    <circle cx="190" cy="140" r="30"/>
    <circle cx="420" cy="120" r="24"/>
    <circle cx="660" cy="150" r="28"/>
    <circle cx="850" cy="210" r="26"/>
    <circle cx="120" cy="540" r="28"/>
    <circle cx="350" cy="590" r="24"/>
    <circle cx="610" cy="560" r="32"/>
    <circle cx="860" cy="520" r="28"/>
  </g>

  <g stroke="#b5daff" stroke-width="2" opacity="0.9">
    <line x1="190" y1="140" x2="420" y2="120"/>
    <line x1="420" y1="120" x2="660" y2="150"/>
    <line x1="660" y1="150" x2="850" y2="210"/>
    <line x1="120" y1="540" x2="350" y2="590"/>
    <line x1="350" y1="590" x2="610" y2="560"/>
    <line x1="610" y1="560" x2="860" y2="520"/>
    <line x1="190" y1="140" x2="120" y2="540"/>
    <line x1="660" y1="150" x2="610" y2="560"/>
  </g>

  <g transform="translate(726 300)">
    <rect x="0" y="0" width="210" height="150" rx="14" fill="#eaf5ff" opacity="0.95"/>
    <rect x="16" y="18" width="120" height="16" rx="8" fill="#cbe5ff"/>
    <rect x="16" y="46" width="176" height="12" rx="6" fill="#dbeeff"/>
    <rect x="16" y="68" width="168" height="12" rx="6" fill="#dbeeff"/>
    <rect x="16" y="90" width="120" height="12" rx="6" fill="#dbeeff"/>
    <rect x="16" y="112" width="88" height="20" rx="10" fill="#8ebfff"/>
  </g>
</svg>
