<svg xmlns="http://www.w3.org/2000/svg" viewBox="0 0 1000 700" role="img" aria-label="Organoid platform illustration">
  <defs>
    <linearGradient id="bg" x1="0" y1="0" x2="1" y2="1">
      <stop offset="0%" stop-color="#2365c4"/>
      <stop offset="100%" stop-color="#1a3f80"/>
    </linearGradient>
    <radialGradient id="petri" cx="50%" cy="45%" r="48%">
      <stop offset="0%" stop-color="#e0f1ff" stop-opacity="0.95"/>
      <stop offset="100%" stop-color="#8ec2ff" stop-opacity="0.55"/>
    </radialGradient>
  </defs>
  <rect width="1000" height="700" fill="url(#bg)"/>

  <g opacity="0.18" stroke="#d8ecff" stroke-width="2">
    <path d="M40 620 C260 510 440 690 670 585 C790 535 890 580 960 550"/>
    <path d="M30 680 C220 600 420 730 620 655 C790 593 890 640 970 610"/>
  </g>

  <g transform="translate(130 108)">
    <circle cx="210" cy="210" r="180" fill="url(#petri)" stroke="#e8f4ff" stroke-width="8"/>
    <circle cx="210" cy="210" r="105" fill="#6aabff" opacity="0.35"/>
    <circle cx="210" cy="210" r="36" fill="#2f7de2" opacity="0.8"/>
    <circle cx="150" cy="160" r="16" fill="#4f95f2" opacity="0.85"/>
    <circle cx="250" cy="140" r="12" fill="#4f95f2" opacity="0.85"/>
    <circle cx="270" cy="245" r="18" fill="#4f95f2" opacity="0.85"/>
    <circle cx="140" cy="270" r="13" fill="#4f95f2" opacity="0.85"/>
  </g>

  <g transform="translate(540 128)" fill="#eff7ff">
    <rect x="0" y="0" width="320" height="44" rx="12"/>
    <rect x="0" y="62" width="260" height="20" rx="10" opacity="0.8"/>
    <rect x="0" y="96" width="300" height="20" rx="10" opacity="0.8"/>
    <rect x="0" y="130" width="230" height="20" rx="10" opacity="0.8"/>
    <rect x="0" y="188" width="320" height="180" rx="14" opacity="0.92"/>
    <rect x="18" y="208" width="180" height="20" rx="10" fill="#c8e2ff"/>
    <rect x="18" y="238" width="280" height="14" rx="7" fill="#d9ecff"/>
    <rect x="18" y="262" width="260" height="14" rx="7" fill="#d9ecff"/>
    <rect x="18" y="286" width="210" height="14" rx="7" fill="#d9ecff"/>
  </g>

  <g transform="translate(548 520)">
    <rect x="0" y="0" width="110" height="42" rx="12" fill="#eff7ff"/>
    <rect x="124" y="0" width="140" height="42" rx="12" fill="#d2e8ff"/>
  </g>
</svg>
